<svg id="e1FBRlnbth31" xmlns="http://www.w3.org/2000/svg" xmlns:xlink="http://www.w3.org/1999/xlink" viewBox="0 0 512 512" shape-rendering="geometricPrecision" text-rendering="geometricPrecision"><defs><linearGradient id="e1FBRlnbth34-fill" x1="0.582114" y1="0.416458" x2="0.853553" y2="0.853553" spreadMethod="pad" gradientUnits="objectBoundingBox" gradientTransform="translate(0 0)"><stop id="e1FBRlnbth34-fill-0" offset="0%" stop-color="#ffda00"/><stop id="e1FBRlnbth34-fill-1" offset="100%" stop-color="#ffa500"/></linearGradient><linearGradient id="e1FBRlnbth37-fill" x1="0.407491" y1="0.5" x2="1" y2="1.292998" spreadMethod="pad" gradientUnits="objectBoundingBox" gradientTransform="translate(0 0)"><stop id="e1FBRlnbth37-fill-0" offset="0%" stop-color="#ff7d00"/><stop id="e1FBRlnbth37-fill-1" offset="100%" stop-color="#c62a00"/></linearGradient></defs><g transform="matrix(2.690134 0 0 2.690135-133.765527-133.180615)"><path d="M19.999997,19.393954h100c0,50.886481-49.957526,44.229091-50,5.606046.042474,38.623045-50,45.280435-50-5.606046Z" transform="matrix(1.250517 0.11112-.223956 1.270119 55.700261 77.311392)" fill="none" stroke="#ffda00" stroke-width="5"/><ellipse rx="75" ry="75" transform="translate(159.675136 152.375646)" fill="url(#e1FBRlnbth34-fill)" stroke-width="0"/><ellipse rx="23.994484" ry="11.186617" transform="matrix(-.907123 0.420865-.420865-.907123 213.63812 96.348648)" fill="#ffda00" stroke-width="0"/><ellipse rx="23.994484" ry="11.186617" transform="matrix(.103536 0.994626-.994626 0.103536 199.011453 86.987216)" fill="#ffda00" stroke-width="0"/><path d="M115.013214,158.597747c5.803531,0,4.733645,10.799836,17.775556,16.919181s4.089378,13.105743-36.033879,9.925654-59.352099-6.700964-53.551154-13.543065s40.684164-7.554388,49.657936-7.70572s16.34801-5.59605,22.151541-5.59605Z" transform="matrix(1.083924 0 0 1.690277 6.067065-115.698479)" fill="url(#e1FBRlnbth37-fill)" stroke-width="0.6"/><path d="M19.999997,19.393954h100c0,50.886481-49.957526,44.229091-50,5.606046.042474,38.623045-50,45.280435-50-5.606046Z" transform="matrix(1.250517 0.11112-.223956 1.270119 55.700261 77.311392)" stroke-width="0.6"/></g></svg>
