<svg width="214.748" height="71.634" viewBox="0 0 214.748 71.634" xmlns="http://www.w3.org/2000/svg"><g id="svgGroup" stroke-linecap="round" fill-rule="evenodd" font-size="9pt" stroke="#ffffff" stroke-width="0.25mm" fill="#ffffff" style="stroke:#ffffff;stroke-width:0.25mm;fill:#ffffff"><path d="M 170.07 70.459 L 173.928 52.539 L 180.227 47.314 L 191.799 70.459 L 204.934 70.459 L 189.846 40.527 L 214.748 18.604 L 200.295 18.604 L 176.955 39.16 L 176.662 39.16 L 185.061 0 L 173.098 0 L 158.059 70.459 L 170.07 70.459 Z M 154.397 52.441 L 142.873 52.441 A 13.25 13.25 0 0 1 138.88 58.502 C 136.758 60.279 134.031 61.279 130.861 61.279 A 9.69 9.69 0 0 1 121.628 55.296 C 120.964 53.819 120.536 52.097 120.38 50.161 A 20.927 20.927 0 0 1 120.315 48.486 C 120.315 41.532 122.327 35.782 125.693 32.121 A 12.871 12.871 0 0 1 135.354 27.783 A 12.333 12.333 0 0 1 139.729 28.529 A 9.159 9.159 0 0 1 145.705 37.207 L 157.229 37.207 L 157.229 36.035 C 157.229 26.123 149.319 17.529 135.744 17.529 A 25.766 25.766 0 0 0 117.543 24.581 C 111.673 30.194 108.254 38.782 108.254 48.975 C 108.254 62.305 116.311 71.533 130.52 71.533 A 24.791 24.791 0 0 0 145.476 66.67 A 23.261 23.261 0 0 0 154.397 52.441 Z M 84.719 64.209 L 84.914 64.209 L 83.596 70.459 L 95.119 70.459 L 102.199 37.012 A 13.155 13.155 0 0 0 102.361 36.097 C 102.465 35.371 102.538 34.536 102.57 33.701 A 25.287 25.287 0 0 0 102.59 32.715 A 14.075 14.075 0 0 0 93.693 19.703 C 91.36 18.632 88.634 17.927 85.595 17.655 A 32.323 32.323 0 0 0 82.717 17.529 A 29.155 29.155 0 0 0 72.675 19.206 A 19.228 19.228 0 0 0 59.719 34.082 L 71.34 34.082 A 8.271 8.271 0 0 1 76.659 28.109 C 78.106 27.549 79.821 27.246 81.789 27.246 C 84.595 27.246 86.812 27.882 88.342 29.027 A 6.042 6.042 0 0 1 90.774 34.082 A 35.043 35.043 0 0 1 90.772 34.488 C 90.766 35.027 90.735 35.566 90.578 36.23 L 89.895 39.355 L 75.783 39.941 A 38.168 38.168 0 0 0 67.073 41.247 C 58.648 43.624 53.811 49.068 53.811 57.031 C 53.811 65.332 60.842 71.289 69.68 71.289 A 20.156 20.156 0 0 0 77.66 69.693 A 17.331 17.331 0 0 0 84.719 64.209 Z M 45.412 50.977 L 56.252 0 L 43.508 0 L 33.108 48.877 A 23.959 23.959 0 0 1 31.759 53.266 C 29.803 57.842 26.58 60.107 21.926 60.107 C 16.568 60.107 13.048 57.209 12.484 52.419 A 11.929 11.929 0 0 1 12.404 51.025 L 12.404 50.635 L 0.051 50.635 A 14.139 14.139 0 0 1 0.046 50.964 C 0.034 51.475 0.002 52.112 0.002 52.588 A 18.222 18.222 0 0 0 12.671 70.221 A 25.774 25.774 0 0 0 21.291 71.631 A 26.522 26.522 0 0 0 31.63 69.711 C 36.971 67.468 40.939 63.304 43.418 57.453 A 35.098 35.098 0 0 0 45.412 50.977 Z M 76.125 47.998 L 88.235 47.412 L 87.111 52.344 A 12.636 12.636 0 0 1 77.508 61.605 A 14.607 14.607 0 0 1 74.074 62.012 A 11.985 11.985 0 0 1 70.362 61.463 C 69.005 61.02 67.883 60.321 67.067 59.411 A 5.843 5.843 0 0 1 65.578 55.42 C 65.578 51.78 68.292 49.245 72.97 48.344 A 20.767 20.767 0 0 1 76.125 47.998 Z" vector-effect="non-scaling-stroke"/></g></svg>