<svg width="394.873" height="91.605" viewBox="0 0 394.873 91.605" xmlns="http://www.w3.org/2000/svg"><g id="svgGroup" stroke-linecap="round" fill-rule="evenodd" font-size="9pt" stroke="#ffffff" stroke-width="0.25mm" fill="#ffffff" style="stroke:#ffffff;stroke-width:0.25mm;fill:#ffffff"><path d="M 177.588 72.022 L 189.551 72.022 L 196.338 40.039 A 14.758 14.758 0 0 1 199.332 33.634 C 201.583 30.883 204.725 29.248 207.959 29.248 A 8.814 8.814 0 0 1 211.458 29.921 C 214.263 31.126 215.82 33.829 215.82 37.061 A 16.284 16.284 0 0 1 215.644 39.367 C 215.56 39.955 215.448 40.57 215.311 41.226 A 42.807 42.807 0 0 1 215.283 41.358 L 208.789 72.022 L 220.459 72.022 L 227.246 40.088 A 15.581 15.581 0 0 1 229.517 34.566 C 230.961 32.413 232.883 30.855 235.011 30.002 A 10.34 10.34 0 0 1 238.867 29.248 A 8.814 8.814 0 0 1 242.366 29.921 C 245.171 31.126 246.729 33.829 246.729 37.061 A 18.358 18.358 0 0 1 246.581 39.367 C 246.507 39.955 246.404 40.57 246.268 41.226 A 28.626 28.626 0 0 1 246.24 41.358 L 239.746 72.022 L 251.709 72.022 L 258.545 39.453 A 27.564 27.564 0 0 0 259.108 35.938 A 27.031 27.031 0 0 0 259.229 33.399 A 14.557 14.557 0 0 0 256.839 25.203 C 254.676 21.981 251.184 19.815 246.954 19.243 A 16.985 16.985 0 0 0 244.678 19.092 C 237.805 19.092 232.603 22.183 229.1 26.213 A 22.98 22.98 0 0 0 227.441 28.369 L 227.246 28.369 A 12.15 12.15 0 0 0 221.836 21.261 C 220.136 20.206 218.106 19.475 215.809 19.206 A 17.111 17.111 0 0 0 213.818 19.092 A 17.466 17.466 0 0 0 200.82 25.149 A 16.676 16.676 0 0 0 198.584 28.418 L 198.291 28.418 L 200.049 20.166 L 188.574 20.166 L 177.588 72.022 Z M 0 72.022 L 53.174 72.022 L 55.42 61.133 L 18.457 61.133 L 18.506 60.889 L 65.43 10.156 L 67.236 1.563 L 16.016 1.563 L 13.721 12.451 L 48.828 12.451 L 48.779 12.695 L 1.807 63.428 L 0 72.022 Z M 111.133 70.996 L 121.875 20.166 L 110.156 20.166 L 108.057 30.322 L 107.617 30.322 A 15.014 15.014 0 0 0 97.987 20.324 A 18.436 18.436 0 0 0 91.797 19.287 A 25.004 25.004 0 0 0 68.752 36.234 A 38.487 38.487 0 0 0 65.967 50.733 C 65.967 63.02 73.019 71.113 83.721 71.562 A 22.567 22.567 0 0 0 84.668 71.582 C 91.26 71.582 97.363 68.311 100.488 63.281 L 100.928 63.281 L 99.219 70.703 A 19.455 19.455 0 0 1 97.081 76.14 C 94.54 80.387 90.418 82.52 84.717 82.52 C 78.564 82.52 74.365 79.834 73.73 75.684 L 61.816 75.684 A 14.3 14.3 0 0 0 70.184 88.503 C 73.948 90.493 78.803 91.602 84.375 91.602 A 31.851 31.851 0 0 0 96.632 89.351 C 102.988 86.711 107.697 81.774 110.126 74.662 A 31.894 31.894 0 0 0 111.133 70.996 Z M 283.203 27.979 L 282.959 27.979 L 288.574 1.563 L 276.709 1.563 L 261.67 72.022 L 273.145 72.022 L 275.342 61.817 L 275.586 61.817 C 277.393 68.262 284.131 72.852 292.09 72.852 A 24.477 24.477 0 0 0 314.445 56.65 A 39.908 39.908 0 0 0 317.578 40.918 C 317.578 27.707 310.687 19.722 299.829 19.305 A 23.516 23.516 0 0 0 298.926 19.287 A 18.916 18.916 0 0 0 287.031 23.486 A 16.067 16.067 0 0 0 283.203 27.979 Z M 392.041 54.004 L 380.518 54.004 A 13.25 13.25 0 0 1 376.524 60.065 C 374.403 61.842 371.676 62.842 368.506 62.842 A 9.69 9.69 0 0 1 359.273 56.859 C 358.608 55.382 358.18 53.659 358.025 51.724 A 20.927 20.927 0 0 1 357.959 50.049 C 357.959 43.095 359.972 37.345 363.338 33.684 A 12.871 12.871 0 0 1 372.998 29.346 A 12.333 12.333 0 0 1 377.373 30.092 A 9.159 9.159 0 0 1 383.35 38.77 L 394.873 38.77 L 394.873 37.598 C 394.873 27.686 386.963 19.092 373.389 19.092 A 25.766 25.766 0 0 0 355.188 26.144 C 349.318 31.756 345.898 40.345 345.898 50.537 C 345.898 63.867 353.955 73.096 368.164 73.096 A 24.791 24.791 0 0 0 383.121 68.232 A 23.261 23.261 0 0 0 392.041 54.004 Z M 152.344 19.092 A 27.638 27.638 0 0 0 125.572 40.437 A 36.174 36.174 0 0 0 124.316 50 C 124.316 63.867 133.35 73.096 147.119 73.096 A 27.613 27.613 0 0 0 173.841 51.908 A 36.278 36.278 0 0 0 175.146 42.139 C 175.146 29.856 168.059 21.25 156.871 19.445 A 28.403 28.403 0 0 0 152.344 19.092 Z M 320.166 72.022 L 332.227 72.022 L 343.213 20.166 L 331.201 20.166 L 320.166 72.022 Z M 137.777 56.721 A 10.123 10.123 0 0 0 147.412 63.037 C 156.396 63.037 162.988 54.102 162.988 42.481 A 21.533 21.533 0 0 0 162.939 41.009 C 162.796 38.932 162.35 37.068 161.637 35.467 A 10.123 10.123 0 0 0 152.002 29.151 A 13.208 13.208 0 0 0 143.765 32.017 C 141.345 33.907 139.408 36.644 138.133 39.966 A 27.238 27.238 0 0 0 136.426 49.707 A 21.533 21.533 0 0 0 136.475 51.179 C 136.618 53.256 137.064 55.12 137.777 56.721 Z M 290.332 62.647 C 283.398 62.647 278.809 57.569 278.809 50.195 A 26.607 26.607 0 0 1 281.262 38.815 C 282.933 35.306 285.383 32.503 288.38 30.871 A 12.747 12.747 0 0 1 294.531 29.297 C 301.268 29.297 305.247 34.019 305.414 41.68 A 23.226 23.226 0 0 1 305.42 42.188 A 27.388 27.388 0 0 1 303.476 52.576 C 300.994 58.599 296.298 62.647 290.332 62.647 Z M 83.914 61.182 A 11.468 11.468 0 0 0 88.965 62.256 A 14.713 14.713 0 0 0 102.127 53.278 A 25.664 25.664 0 0 0 104.639 41.944 A 14.914 14.914 0 0 0 103.978 37.464 A 10.92 10.92 0 0 0 93.359 29.492 A 12.953 12.953 0 0 0 85.796 31.884 C 83.215 33.702 81.171 36.462 79.829 39.837 A 27.059 27.059 0 0 0 78.027 49.805 A 17.215 17.215 0 0 0 78.652 54.565 C 79.529 57.609 81.314 59.921 83.914 61.182 Z M 340.039 13.477 A 6.774 6.774 0 0 0 345.084 11.284 A 6.704 6.704 0 0 0 346.826 6.738 A 6.69 6.69 0 0 0 340.569 0.02 A 7.214 7.214 0 0 0 340.039 0 A 6.687 6.687 0 0 0 333.307 6.432 A 7.071 7.071 0 0 0 333.301 6.738 A 6.687 6.687 0 0 0 339.732 13.47 A 7.071 7.071 0 0 0 340.039 13.477 Z" vector-effect="non-scaling-stroke"/></g></svg>